<mxfile host="app.diagrams.net" agent="Mozilla/5.0 (Windows NT 10.0; Win64; x64) AppleWebKit/537.36 (KHTML, like Gecko) Chrome/133.0.0.0 Safari/537.36" version="26.1.0">
  <diagram name="Página-1" id="MOJF-0shvm4DCTFrxS-M">
    <mxGraphModel grid="1" page="1" gridSize="10" guides="1" tooltips="1" connect="1" arrows="1" fold="1" pageScale="1" pageWidth="827" pageHeight="1169" math="0" shadow="0">
      <root>
        <mxCell id="0" />
        <mxCell id="1" parent="0" />
        <mxCell id="1khvOZmupsubu3cK_Mmb-1" value="FIM" style="html=1;dashed=0;whiteSpace=wrap;shape=mxgraph.dfd.start" vertex="1" parent="1">
          <mxGeometry x="790" y="300" width="80" height="30" as="geometry" />
        </mxCell>
        <mxCell id="1khvOZmupsubu3cK_Mmb-2" value="Inicio" style="html=1;dashed=0;whiteSpace=wrap;shape=mxgraph.dfd.start" vertex="1" parent="1">
          <mxGeometry x="240" y="100" width="80" height="30" as="geometry" />
        </mxCell>
        <mxCell id="1khvOZmupsubu3cK_Mmb-7" style="edgeStyle=orthogonalEdgeStyle;rounded=0;orthogonalLoop=1;jettySize=auto;html=1;" edge="1" parent="1" source="1khvOZmupsubu3cK_Mmb-3" target="1khvOZmupsubu3cK_Mmb-6">
          <mxGeometry relative="1" as="geometry" />
        </mxCell>
        <mxCell id="1khvOZmupsubu3cK_Mmb-3" value="Leia (altura Pessoa)" style="html=1;strokeWidth=2;shape=manualInput;whiteSpace=wrap;rounded=1;size=26;arcSize=11;align=center;" vertex="1" parent="1">
          <mxGeometry x="230" y="160" width="130" height="60" as="geometry" />
        </mxCell>
        <mxCell id="1khvOZmupsubu3cK_Mmb-10" style="edgeStyle=orthogonalEdgeStyle;rounded=0;orthogonalLoop=1;jettySize=auto;html=1;" edge="1" parent="1" source="1khvOZmupsubu3cK_Mmb-6" target="1khvOZmupsubu3cK_Mmb-9">
          <mxGeometry relative="1" as="geometry" />
        </mxCell>
        <mxCell id="1khvOZmupsubu3cK_Mmb-17" value="&lt;b&gt;&lt;font style=&quot;font-size: 15px;&quot;&gt;SIM&lt;/font&gt;&lt;/b&gt;" style="edgeLabel;html=1;align=center;verticalAlign=middle;resizable=0;points=[];" connectable="0" vertex="1" parent="1khvOZmupsubu3cK_Mmb-10">
          <mxGeometry x="-0.1733" relative="1" as="geometry">
            <mxPoint as="offset" />
          </mxGeometry>
        </mxCell>
        <mxCell id="1khvOZmupsubu3cK_Mmb-12" style="edgeStyle=orthogonalEdgeStyle;rounded=0;orthogonalLoop=1;jettySize=auto;html=1;" edge="1" parent="1" source="1khvOZmupsubu3cK_Mmb-6" target="1khvOZmupsubu3cK_Mmb-11">
          <mxGeometry relative="1" as="geometry" />
        </mxCell>
        <mxCell id="1khvOZmupsubu3cK_Mmb-16" value="&lt;b&gt;&lt;font style=&quot;font-size: 15px;&quot;&gt;NÃO&lt;/font&gt;&lt;/b&gt;" style="edgeLabel;html=1;align=center;verticalAlign=middle;resizable=0;points=[];" connectable="0" vertex="1" parent="1khvOZmupsubu3cK_Mmb-12">
          <mxGeometry x="0.1905" y="-3" relative="1" as="geometry">
            <mxPoint x="-2" y="-3" as="offset" />
          </mxGeometry>
        </mxCell>
        <mxCell id="1khvOZmupsubu3cK_Mmb-6" value="Se alturaPessoa &amp;gt; 1,50" style="strokeWidth=2;html=1;shape=mxgraph.flowchart.decision;whiteSpace=wrap;" vertex="1" parent="1">
          <mxGeometry x="440" y="140" width="260" height="100" as="geometry" />
        </mxCell>
        <mxCell id="1khvOZmupsubu3cK_Mmb-13" style="edgeStyle=orthogonalEdgeStyle;rounded=0;orthogonalLoop=1;jettySize=auto;html=1;" edge="1" parent="1" source="1khvOZmupsubu3cK_Mmb-9" target="1khvOZmupsubu3cK_Mmb-1">
          <mxGeometry relative="1" as="geometry" />
        </mxCell>
        <mxCell id="1khvOZmupsubu3cK_Mmb-9" value="Entrada Autorizada" style="shape=parallelogram;perimeter=parallelogramPerimeter;whiteSpace=wrap;html=1;dashed=0;" vertex="1" parent="1">
          <mxGeometry x="475" y="290" width="190" height="50" as="geometry" />
        </mxCell>
        <mxCell id="1khvOZmupsubu3cK_Mmb-14" style="edgeStyle=orthogonalEdgeStyle;rounded=0;orthogonalLoop=1;jettySize=auto;html=1;" edge="1" parent="1" source="1khvOZmupsubu3cK_Mmb-11" target="1khvOZmupsubu3cK_Mmb-1">
          <mxGeometry relative="1" as="geometry" />
        </mxCell>
        <mxCell id="1khvOZmupsubu3cK_Mmb-11" value="Tente Novamente no ano&lt;div&gt;seguinte&lt;/div&gt;" style="shape=parallelogram;perimeter=parallelogramPerimeter;whiteSpace=wrap;html=1;dashed=0;" vertex="1" parent="1">
          <mxGeometry x="730" y="165" width="200" height="50" as="geometry" />
        </mxCell>
        <mxCell id="1khvOZmupsubu3cK_Mmb-15" style="edgeStyle=orthogonalEdgeStyle;rounded=0;orthogonalLoop=1;jettySize=auto;html=1;entryX=0.391;entryY=0.312;entryDx=0;entryDy=0;entryPerimeter=0;" edge="1" parent="1" source="1khvOZmupsubu3cK_Mmb-2" target="1khvOZmupsubu3cK_Mmb-3">
          <mxGeometry relative="1" as="geometry" />
        </mxCell>
      </root>
    </mxGraphModel>
  </diagram>
</mxfile>
